<?xml version="1.0" standalone="no"?>
<!DOCTYPE svg PUBLIC "-//W3C//DTD SVG 20010904//EN"
 "http://www.w3.org/TR/2001/REC-SVG-20010904/DTD/svg10.dtd">
<svg version="1.0" xmlns="http://www.w3.org/2000/svg"
 width="256.000000pt" height="256.000000pt" viewBox="0 0 256.000000 256.000000"
 preserveAspectRatio="xMidYMid meet">
<metadata>
Created by potrace 1.11, written by Peter Selinger 2001-2013
</metadata>
<g transform="translate(0.000000,256.000000) scale(0.100000,-0.100000)"
fill="#000000" stroke="none">
<path d="M1160 2465 c-8 -2 -49 -9 -90 -15 -418 -68 -786 -388 -919 -799 -45
-137 -56 -213 -56 -376 1 -217 35 -358 131 -545 296 -575 1011 -805 1591 -511
322 163 551 462 629 821 26 118 26 362 0 480 -100 462 -449 817 -906 921 -78
18 -338 35 -380 24z m-200 -1216 c52 -42 130 -100 173 -129 42 -29 77 -58 77
-65 0 -24 -78 -131 -129 -177 -64 -57 -103 -71 -189 -66 -186 10 -305 161
-347 438 -14 91 -20 333 -10 375 5 17 33 -7 168 -140 89 -88 205 -194 257
-236z m1069 231 c2 -417 -126 -655 -361 -668 -86 -5 -125 9 -189 66 -51 45
-129 153 -129 177 0 6 35 35 78 65 144 100 267 204 427 365 118 118 162 156
167 145 4 -8 7 -76 7 -150z"/>
</g>
</svg>
